PathFileType	4	(X/Y/Z)	C:/Users/beibeiliu/ov580/test_trc/User2\sequence.21_training_dense_right.trc
DataRate	CameraRate	NumFrames	NumMarkers	Units	OrigDataRate	OrigDataStartFrame	OrigNumFrames
120	120	22	19	mm	120	36	71
Frame#	Time	ThumbCMC			ThumbMCP			ThumbIP			ThumbTip			IndexMCP			IndexPIP			IndexTip			MiddleMCP			MiddlePIP			MiddleTip			RingMCP			RingPIP			RingTip			PinkyMCP			PinkyPIP			PinkyTip			BackHand1			BackHand2			BackHand3	
		X0	Y0	Z0	X1	Y1	Z1	X2	Y2	Z2	X3	Y3	Z3	X4	Y4	Z4	X5	Y5	Z5	X6	Y6	Z6	X7	Y7	Z7	X8	Y8	Z8	X9	Y9	Z9	X10	Y10	Z10	X11	Y11	Z11	X12	Y12	Z12	X13	Y13	Z13	X14	Y14	Z14	X15	Y15	Z15	X16	Y16	Z16	X17	Y17	Z17	X18	Y18	Z18	
35	0.291667	134.178	29.7785	-33.9403	134.229	41.5328	-67.3973	135.509	52.2709	-96.6418	131.894	61.3878	-117.96	80.7482	44.03	-99.2532	66.5625	66.4105	-98.9087	56.817	94.3228	-95.3276	57.4323	40.0251	-88.4286	44.8567	67.8101	-90.5373	30.641	96.7268	-87.45	38.7033	34.0873	-71.0994	30.8448	63.476	-77.7247	22.6237	94.1084	-75.588	27.8928	29.3261	-54.8434	20.4691	50.4148	-58.5913	12.3442	77.0748	-65.717	76.4366	-9.50076	-36.7561	94.3651	-14.7538	-5.34703	111.35	-3.44539	-38.8086	
36	0.3	137.222	20.7755	-41.9652	136.44	32.8918	-68.2032	134.862	39.7719	-105.602	134.362	49.8277	-124.924	83.2361	23.6781	-103.593	70.1954	48.8849	-108.456	52.6805	71.3216	-101.077	65.8438	20.5298	-95.9831	47.8799	44.8266	-97.1991	31.4782	76.4039	-98.486	46.4539	12.1747	-79.6537	32.3444	40.7045	-84.1557	24.597	70.2883	-83.5236	34.8787	3.84338	-57.959	19.4103	30.7085	-67.1621	14.0465	48.3084	-74.8701	85.9838	-23.5357	-41.6107	103.593	-27.5831	-15.7807	123.009	-13.7405	-41.2288	
37	0.308333	143.94	17.2879	-42.604	143.57	27.6817	-74.0324	139.64	32.3398	-111.701	136.31	40.3817	-132.102	93.5297	8.62156	-107.895	73.2716	28.9172	-113.473	56.4301	55.9737	-110.579	72.8747	1.64862	-100.644	51.0295	24.6914	-103.177	30.7702	52.5255	-103.199	55.726	-7.93038	-85.915	38.5609	19.7707	-90.9997	29.9801	46.8214	-90.9667	43.6271	-14.2248	-64.0848	27.8995	8.51792	-73.1232	18.2387	29.107	-83.0927	100.004	-37.9642	-44.7079	114.686	-38.9569	-18.0487	132.822	-20.9063	-49.9462	
38	0.316667	153.75	15.3099	-46.79	150.449	23.6457	-78.0353	145.534	26.8995	-114.6	141.156	35.4109	-133.955	99.0608	4.22486	-112.489	80.2162	24.8163	-118.259	60.2286	47.8319	-111.309	80.6231	-7.93643	-101.255	61.5645	17.0163	-107.536	39.5987	45.4625	-108.109	64.6865	-12.2494	-90.2923	47.289	7.19006	-92.4936	38.3876	39.1065	-92.3399	56.2879	-22.6084	-66.5213	40.0148	-2.73995	-72.0685	29.0859	18.5036	-82.917	110.941	-40.4253	-47.2453	128.612	-39.4501	-21.9356	144.215	-24.9624	-51.877	
39	0.325	166.382	13.8061	-51.7388	158.654	19.3691	-83.9295	150.32	24.2181	-115.059	146.656	34.3144	-135.345	110.267	5.61832	-111.318	90.0148	28.7771	-116.764	71.3628	54.3391	-108.368	87.8279	-0.0532015	-103.619	65.9838	25.5729	-103.895	47.882	53.7139	-98.0627	68.0194	-6.6958	-86.805	55.5293	17.719	-89.4112	49.4853	49.7733	-83.7193	64.5917	-14.849	-68.6673	48.216	7.94741	-71.4801	38.1961	31.7565	-77.5891	113.902	-41.4733	-48.4089	134.025	-40.8171	-19.5826	151.571	-25.67	-55.5683	
40	0.333333	170.106	16.4859	-52.9172	163.513	28.4643	-79.3869	153.965	38.0198	-111.118	144.747	45.7231	-131.68	109.445	16.3854	-107.366	87.7512	38.1929	-104.084	71.0392	64.6069	-88.5726	87.4399	6.17464	-94.3259	71.1418	33.2487	-91.7024	53.2729	63.2039	-79.6506	73.2534	-1.53685	-77.64	59.6624	26.5105	-76.7175	52.7846	54.6636	-65.5801	66.8197	-7.97576	-60.6701	53.8443	17.3733	-59.9375	45.3765	40.896	-59.7082	120.633	-35.6749	-51.0579	142.201	-40.4614	-23.8133	153.581	-20.4225	-54.3121	
41	0.341667	167.108	33.1078	-45.5713	159.323	49.5378	-70.7508	141.993	56.3087	-101.582	130.68	67.4133	-122.877	106.371	27.542	-100.112	80.5821	44.1281	-91.8996	64.377	62.2534	-73.7252	87.1897	13.8104	-87.9656	63.7707	32.301	-77.0559	43.7665	55.8815	-58.6776	74.7886	1.08481	-71.2054	59.9978	21.4693	-65.9928	46.983	49.3267	-46.8572	74.7442	-12.8424	-54.5875	57.9301	14.8633	-50.2523	45.6978	32.1348	-42.5681	133.381	-30.2169	-49.6156	152.552	-29.2144	-26.1232	163.396	-3.00119	-54.1324	
42	0.35	157.984	48.2985	-38.7693	145.852	63.8247	-61.7939	128.199	70.3315	-94.5964	114.713	78.3882	-114.82	100.697	26.583	-93.9584	75.7569	33.8637	-86.4917	54.2447	43.9063	-64.9635	90.0246	7.12015	-83.9227	64.7719	16.725	-74.3982	37.4854	32.2616	-56.0638	86.2268	-5.27415	-72.0566	60.834	6.95633	-62.1339	44.1656	26.0018	-47.1488	86.1582	-22.4788	-55.8039	64.2496	-7.42571	-48.7106	45.0482	11.2626	-39.3068	148.105	-20.0173	-49.9985	165.59	-16.8821	-25.1218	165.289	14.5025	-52.5452	
43	0.358333	145.501	58.201	-33.326	130.861	66.4273	-57.378	114.926	69.8345	-88.2687	101.417	72.906	-107.432	108.984	20.5004	-95.2307	72.9047	20.4573	-89.4504	52.793	19.8858	-68.5535	105.399	0.134094	-87.6403	70.7049	1.97874	-81.0227	42.3153	3.14627	-64.2094	101.443	-17.715	-77.9797	70.0399	-12.6525	-67.5632	48.3547	-6.3064	-49.1457	102.814	-33.3899	-63.2658	78.0615	-23.8394	-55.7099	55.1558	-15.812	-44.1562	160.9	-10.1316	-49.7084	175.463	-3.27655	-23.2195	166.564	25.0523	-43.6923	
44	0.366667	126.215	48.7292	-32.085	111.364	56.9881	-55.0001	98.5957	57.0014	-87.682	86.6953	57.3121	-110.135	110.95	12.8922	-102.164	84.5148	0.536947	-99.6599	63.8649	-14.1535	-75.0667	116.595	-7.89593	-95.4794	86.2608	-23.8392	-91.392	56.348	-32.0406	-75.6813	118.117	-28.6373	-85.5891	88.708	-35.1857	-79.5068	65.5891	-35.8406	-59.833	127.413	-37.7588	-71.6857	97.5718	-44.9898	-65.6504	73.9785	-39.757	-55.5944	170.342	-2.10911	-52.2875	175.53	7.63154	-15.3572	158.98	35.5227	-39.1702	
45	0.375	113.503	37.916	-32.164	98.9686	42.9742	-60.2432	89.1052	44.5566	-93.5776	80.0769	42.5094	-117.353	124.928	10.1654	-104.692	99.5646	-12.6085	-108.586	81.6156	-33.7533	-85.3806	133.28	-8.1643	-102.537	109.889	-31.3799	-105.03	84.387	-56.0567	-90.457	143.355	-25.4003	-92.7198	115.724	-46.4878	-91.5189	90.4336	-56.1088	-74.5655	151.961	-41.0141	-80.2955	127.609	-51.3224	-78.8176	101.314	-63.6481	-68.1115	172.672	9.76976	-48.3168	176.182	14.5896	-11.7306	149.036	39.8257	-39.5879	
46	0.383333	107.103	31.2219	-34.2211	97.3157	32.8848	-61.3691	89.0846	36.3943	-98.5275	83.8504	33.0711	-117.379	131.595	16.1803	-107.884	121.174	-13.6963	-116.515	106.455	-42.133	-97.6567	149.749	-0.790964	-104.545	132.186	-30.355	-113.817	114.729	-60.3081	-106.533	162.55	-14.6168	-97.6505	142.569	-41.937	-103.25	118.964	-61.3059	-91.4935	175.198	-30.5088	-85.7755	152.138	-52.2768	-89.0615	129.2	-61.907	-84.7247	180.287	16.7279	-47.7028	175.404	21.3873	-12.8884	147.696	39.4084	-35.3613	
47	0.391667	111.816	28.2498	-30.8663	97.8835	36.3535	-61.9461	91.5622	42.8941	-94.8728	91.9251	42.7258	-119.224	139.253	30.6626	-106.63	135.744	0.0903562	-122.312	120.976	-28.1108	-118.881	161.927	12.0162	-105.717	147.69	-16.8775	-121.7	131.54	-46.8314	-125.861	176.425	2.13397	-99.6166	163.4	-27.0873	-113.96	142.913	-48.287	-114.468	188.603	-11.2734	-88.0743	170.843	-30.0756	-101.176	151.885	-47.7536	-106.79	184.192	28.764	-40.2727	173.218	26.7322	-6.09869	146.289	43.6788	-28.0182	
48	0.4	108.997	35.7404	-28.1338	95.8116	47.2772	-54.7873	92.4867	60.7857	-88.9942	88.1512	63.6735	-109.069	141.033	48.0723	-105.679	132.822	30.7927	-122.931	128.685	0.254747	-131.697	162.611	34.3941	-103.976	150.824	13.2925	-125.198	138.905	-15.192	-141.163	176.68	25.3257	-101.689	169.934	5.64501	-119.795	153.248	-21.5026	-137.523	192.791	9.60323	-88.2683	182.757	-8.76882	-109.265	164.864	-19.727	-124.683	182.426	37.4926	-34.8689	175.571	30.5132	-5.01799	145.416	50.8572	-22.5547	
49	0.408333	106.682	43.4228	-22.2317	92.9641	63.3572	-46.6705	84.2718	78.7766	-72.7334	82.7976	89.0936	-95.9081	132.265	71.8098	-92.6286	125.083	54.4979	-120.153	119.453	30.7959	-138.154	151.258	62.6962	-95.2189	145.646	41.2871	-126.386	135.124	22.5121	-146.897	171.789	45.5465	-99.2992	161.89	36.3102	-120.728	151.494	18.7817	-147.384	185.043	32.9754	-87.9052	177.956	18.4346	-112.569	166.969	13.6135	-132.947	177.114	48.9623	-32.6144	168.104	34.31	-3.85635	141.292	57.7546	-14.0126	
50	0.416667	95.4677	47.122	-17.7225	79.9995	65.5651	-37.4063	74.4395	84.0207	-63.0213	70.5523	98.3987	-85.3939	116.958	81.1641	-88.6318	109.833	68.6706	-114.179	105.445	49.511	-135.48	138.179	70.2682	-96.1086	129.95	57.693	-120.255	125.687	37.6509	-148.081	160.469	54.3248	-97.2659	151.512	46.0984	-118.768	141.708	33.5816	-147.589	173.728	39.7284	-89.6132	164.144	33.6417	-113.544	159.048	23.2441	-135.568	165.764	54.5123	-32.7699	161.697	36.6275	-2.85759	133.664	56.4499	-10.7029	
51	0.425	83.9305	38.0193	-15.8305	73.5369	57.0496	-40.83	65.0252	71.853	-66.8066	58.3219	85.0046	-88.6484	107.884	68.7367	-89.5907	99.9071	54.0313	-113.149	89.4455	33.9526	-135.912	127.684	58.1088	-95.0131	116.986	42.698	-121.31	104.948	22.0025	-148.738	148.495	40.9303	-98.8169	134.184	31.4441	-123.579	126.304	17.1733	-147.622	160.458	27.8145	-93.3642	153.309	16.1296	-112.679	141.56	9.40424	-138.88	156.275	46.044	-35.8321	155.429	27.7617	-4.24288	122.861	52.7616	-12.6867	
52	0.433333	76.0677	33.4633	-19.0434	61.4472	44.6978	-45.5791	55.3546	55.6146	-75.8045	43.509	63.5876	-95.0847	94.4489	43.5555	-99.1891	81.3961	26.2296	-118.49	75.9824	-1.64183	-133.885	114.601	31.3378	-103.525	99.1927	12.5655	-121.499	89.3063	-15.6763	-140.178	129.958	16.0369	-103.855	118.647	0.580522	-120.968	105.446	-17.8953	-141.645	146.639	3.96893	-93.24	133.559	-10.5929	-112.788	119.653	-23.2705	-130.469	148.497	31.0166	-40.4741	141.78	21.1861	-4.67178	115.956	43.1625	-20.1646	
53	0.441667	75.4449	38.045	-19.5579	58.8623	48.011	-45.9707	49.7631	53.4148	-75.9249	39.9939	60.2509	-101.206	88.0207	30.9245	-99.0869	74.0565	10.2821	-112.393	59.7677	-16.4315	-119.128	102.675	15.028	-102.429	82.8769	-12.0554	-117.235	65.8968	-37.7106	-122.024	117.606	-7.73277	-102.563	102.07	-23.0758	-113.631	76.7257	-39.7603	-126.779	133.164	-20.4059	-89.0621	114.961	-37.2725	-101.727	92.2985	-45.6076	-113.987	143.471	19.3387	-42.9255	140.406	18.4161	-9.31241	114.618	44.3829	-25.9283	
54	0.45	85.1214	48.5859	-19.6904	69.1681	58.0179	-44.2479	57.6451	63.6537	-78.537	45.2302	66.6939	-96.4667	79.5701	23.7146	-99.057	55.1867	6.92926	-105.073	36.3406	-12.5715	-100.944	88.935	4.6326	-98.4524	59.82	-15.4039	-102.184	34.9697	-30.9788	-96.6768	96.088	-15.8847	-94.4522	76.682	-31.7649	-99.0202	48.7396	-41.3875	-102.207	107.059	-32.5193	-82.8033	81.7456	-42.6004	-87.0334	53.9539	-50.3873	-90.0601	136.802	10.9493	-48.9044	142.317	13.8751	-12.1567	121.922	44.3601	-34.214	
55	0.458333	99.481	57.7485	-21.706	85.3665	69.8127	-48.0876	69.6477	76.9524	-75.4306	56.6961	78.5622	-98.8381	71.9853	30.8492	-93.1522	44.3638	19.7614	-93.0021	19.4461	10.3591	-82.7695	74.2323	6.88997	-89.8682	41.3427	-0.176849	-86.3914	8.94723	-7.98027	-71.2726	76.8689	-16.3992	-82.2594	45.6086	-16.4627	-83.7491	17.6206	-23.289	-78.9685	81.8254	-30.04	-69.479	51.9563	-33.1247	-67.579	27.398	-27.1487	-69.2451	130.054	-0.151984	-49.8649	140.425	6.82087	-14.1653	127.475	41.3197	-37.9295	
56	0.466667	113.918	60.8131	-25.412	100.752	76.8028	-50.7263	85.6288	82.9621	-79.2895	72.1026	91.1678	-98.546	66.1361	38.5705	-88.1827	40.1501	44.0017	-85.6267	9.93632	45.3029	-71.638	60.8289	18.028	-82.4854	29.9666	22.2996	-74.9196	-0.699667	31.2643	-59.5633	55.9932	-0.218569	-73.274	26.5115	3.1121	-68.9227	0.265777	12.1923	-61.779	55.7743	-15.1714	-58.8239	29.6784	-9.12602	-52.5455	5.95137	2.47582	-49.326	114.299	-7.4041	-44.8869	132.959	-1.78502	-16.4443	128.808	29.5007	-40.7955	
